<mxfile host="app.diagrams.net" modified="2020-12-04T17:04:36.348Z" agent="5.0 (Windows NT 6.1; Win64; x64) AppleWebKit/537.36 (KHTML, like Gecko) Chrome/87.0.4280.88 Safari/537.36" etag="lZQm0jYcPmFMS_TB3W_g" version="13.10.9" type="github" pages="8">
  <diagram id="lKxtB6D6K-3o9t04PIzB" name="Main">
    <mxGraphModel dx="868" dy="450" grid="1" gridSize="10" guides="1" tooltips="1" connect="1" arrows="1" fold="1" page="1" pageScale="1" pageWidth="850" pageHeight="1100" math="0" shadow="0">
      <root>
        <mxCell id="tMu2AY07BjXL__bY9_Zu-0" />
        <mxCell id="tMu2AY07BjXL__bY9_Zu-1" parent="tMu2AY07BjXL__bY9_Zu-0" />
        <mxCell id="vMo2tWiwMoscuH6namO--2" value="" style="edgeStyle=orthogonalEdgeStyle;rounded=0;orthogonalLoop=1;jettySize=auto;html=1;" parent="tMu2AY07BjXL__bY9_Zu-1" source="vMo2tWiwMoscuH6namO--0" target="vMo2tWiwMoscuH6namO--1" edge="1">
          <mxGeometry relative="1" as="geometry" />
        </mxCell>
        <UserObject label="start" link="https://www.tutorialspoint.com/python/python_gui_programming.htm" id="vMo2tWiwMoscuH6namO--0">
          <mxCell style="ellipse;whiteSpace=wrap;html=1;fillColor=#60a917;strokeColor=#2D7600;fontColor=#ffffff;fontSize=31;fontStyle=1" parent="tMu2AY07BjXL__bY9_Zu-1" vertex="1">
            <mxGeometry x="365" y="150" width="120" height="80" as="geometry" />
          </mxCell>
        </UserObject>
        <mxCell id="vMo2tWiwMoscuH6namO--4" style="edgeStyle=orthogonalEdgeStyle;rounded=0;orthogonalLoop=1;jettySize=auto;html=1;exitX=0;exitY=0.5;exitDx=0;exitDy=0;entryX=0.5;entryY=0;entryDx=0;entryDy=0;" parent="tMu2AY07BjXL__bY9_Zu-1" source="vMo2tWiwMoscuH6namO--1" edge="1">
          <mxGeometry relative="1" as="geometry">
            <mxPoint x="110" y="380" as="targetPoint" />
          </mxGeometry>
        </mxCell>
        <mxCell id="vMo2tWiwMoscuH6namO--6" style="edgeStyle=orthogonalEdgeStyle;rounded=0;orthogonalLoop=1;jettySize=auto;html=1;exitX=0.5;exitY=1;exitDx=0;exitDy=0;" parent="tMu2AY07BjXL__bY9_Zu-1" source="vMo2tWiwMoscuH6namO--1" edge="1">
          <mxGeometry relative="1" as="geometry">
            <mxPoint x="425" y="380" as="targetPoint" />
          </mxGeometry>
        </mxCell>
        <mxCell id="vMo2tWiwMoscuH6namO--8" style="edgeStyle=orthogonalEdgeStyle;rounded=0;orthogonalLoop=1;jettySize=auto;html=1;exitX=1;exitY=0.5;exitDx=0;exitDy=0;entryX=0.5;entryY=0;entryDx=0;entryDy=0;" parent="tMu2AY07BjXL__bY9_Zu-1" source="vMo2tWiwMoscuH6namO--1" edge="1">
          <mxGeometry relative="1" as="geometry">
            <mxPoint x="730" y="380" as="targetPoint" />
          </mxGeometry>
        </mxCell>
        <mxCell id="vMo2tWiwMoscuH6namO--9" style="edgeStyle=orthogonalEdgeStyle;rounded=0;orthogonalLoop=1;jettySize=auto;html=1;exitX=0;exitY=1;exitDx=0;exitDy=0;" parent="tMu2AY07BjXL__bY9_Zu-1" source="vMo2tWiwMoscuH6namO--1" edge="1">
          <mxGeometry relative="1" as="geometry">
            <mxPoint x="270" y="380" as="targetPoint" />
            <Array as="points">
              <mxPoint x="270" y="320" />
            </Array>
          </mxGeometry>
        </mxCell>
        <mxCell id="vMo2tWiwMoscuH6namO--11" style="edgeStyle=orthogonalEdgeStyle;rounded=0;orthogonalLoop=1;jettySize=auto;html=1;exitX=1;exitY=1;exitDx=0;exitDy=0;entryX=0.5;entryY=0;entryDx=0;entryDy=0;" parent="tMu2AY07BjXL__bY9_Zu-1" source="vMo2tWiwMoscuH6namO--1" edge="1">
          <mxGeometry relative="1" as="geometry">
            <mxPoint x="580" y="380" as="targetPoint" />
          </mxGeometry>
        </mxCell>
        <mxCell id="vMo2tWiwMoscuH6namO--1" value="กดปุ่มไหน" style="rhombus;whiteSpace=wrap;html=1;fillColor=#d80073;strokeColor=#A50040;fontColor=#ffffff;" parent="tMu2AY07BjXL__bY9_Zu-1" vertex="1">
          <mxGeometry x="353" y="260" width="145" height="80" as="geometry" />
        </mxCell>
        <mxCell id="vMo2tWiwMoscuH6namO--13" value="กดปุ่ม+" style="text;html=1;align=center;verticalAlign=middle;resizable=0;points=[];autosize=1;" parent="tMu2AY07BjXL__bY9_Zu-1" vertex="1">
          <mxGeometry x="195" y="280" width="50" height="20" as="geometry" />
        </mxCell>
        <UserObject label="&lt;font style=&quot;font-size: 19px;&quot;&gt;add data&lt;/font&gt;" link="data:page/id,UJ4rUbwFmK2HccrdMvZs" id="vMo2tWiwMoscuH6namO--14">
          <mxCell style="shape=process;whiteSpace=wrap;html=1;backgroundOutline=1;fillColor=#6a00ff;strokeColor=#3700CC;fontColor=#ffffff;fontSize=19;" parent="tMu2AY07BjXL__bY9_Zu-1" vertex="1">
            <mxGeometry x="50" y="380" width="120" height="60" as="geometry" />
          </mxCell>
        </UserObject>
        <UserObject label="edit" link="data:page/id,zMalPGHfQV55tFcWnKI-" id="vMo2tWiwMoscuH6namO--15">
          <mxCell style="shape=process;whiteSpace=wrap;html=1;backgroundOutline=1;fillColor=#6a00ff;strokeColor=#3700CC;fontColor=#ffffff;fontSize=24;" parent="tMu2AY07BjXL__bY9_Zu-1" vertex="1">
            <mxGeometry x="210" y="380" width="120" height="60" as="geometry" />
          </mxCell>
        </UserObject>
        <UserObject label="slide day" link="data:page/id,SI3W1f3K3y4VhuoGthXO" id="vMo2tWiwMoscuH6namO--16">
          <mxCell style="shape=process;whiteSpace=wrap;html=1;backgroundOutline=1;fillColor=#6a00ff;strokeColor=#3700CC;fontColor=#ffffff;fontSize=21;" parent="tMu2AY07BjXL__bY9_Zu-1" vertex="1">
            <mxGeometry x="365" y="380" width="120" height="60" as="geometry" />
          </mxCell>
        </UserObject>
        <UserObject label="check" link="data:page/id,ApTdeAuse1WmLWojz0__" id="vMo2tWiwMoscuH6namO--19">
          <mxCell style="shape=process;whiteSpace=wrap;html=1;backgroundOutline=1;fillColor=#6a00ff;strokeColor=#3700CC;fontColor=#ffffff;fontSize=24;" parent="tMu2AY07BjXL__bY9_Zu-1" vertex="1">
            <mxGeometry x="520" y="380" width="120" height="60" as="geometry" />
          </mxCell>
        </UserObject>
        <mxCell id="H4Lekn4TNWTcRFHpl3PN-1" value="" style="edgeStyle=orthogonalEdgeStyle;rounded=0;orthogonalLoop=1;jettySize=auto;html=1;" parent="tMu2AY07BjXL__bY9_Zu-1" source="vMo2tWiwMoscuH6namO--20" target="H4Lekn4TNWTcRFHpl3PN-0" edge="1">
          <mxGeometry relative="1" as="geometry" />
        </mxCell>
        <UserObject label="calender" link="data:page/id,OvSH62DoTymZ-rA0nLNE" id="vMo2tWiwMoscuH6namO--20">
          <mxCell style="shape=process;whiteSpace=wrap;html=1;backgroundOutline=1;fillColor=#6a00ff;strokeColor=#3700CC;fontColor=#ffffff;fontSize=22;" parent="tMu2AY07BjXL__bY9_Zu-1" vertex="1">
            <mxGeometry x="680" y="380" width="120" height="60" as="geometry" />
          </mxCell>
        </UserObject>
        <mxCell id="vMo2tWiwMoscuH6namO--21" value="กดปุ่มแก้ไข" style="text;html=1;align=center;verticalAlign=middle;resizable=0;points=[];autosize=1;" parent="tMu2AY07BjXL__bY9_Zu-1" vertex="1">
          <mxGeometry x="265" y="300" width="70" height="20" as="geometry" />
        </mxCell>
        <mxCell id="vMo2tWiwMoscuH6namO--22" value="กดปุ่มเลื่อนวัน" style="text;html=1;align=center;verticalAlign=middle;resizable=0;points=[];autosize=1;" parent="tMu2AY07BjXL__bY9_Zu-1" vertex="1">
          <mxGeometry x="420" y="350" width="80" height="20" as="geometry" />
        </mxCell>
        <mxCell id="vMo2tWiwMoscuH6namO--23" value="ติ๊ก" style="text;html=1;align=center;verticalAlign=middle;resizable=0;points=[];autosize=1;" parent="tMu2AY07BjXL__bY9_Zu-1" vertex="1">
          <mxGeometry x="585" y="340" width="30" height="20" as="geometry" />
        </mxCell>
        <mxCell id="vMo2tWiwMoscuH6namO--24" value="ปฏิทิน" style="text;html=1;align=center;verticalAlign=middle;resizable=0;points=[];autosize=1;" parent="tMu2AY07BjXL__bY9_Zu-1" vertex="1">
          <mxGeometry x="730" y="320" width="50" height="20" as="geometry" />
        </mxCell>
        <UserObject label="prototype" link="https://docs.google.com/presentation/d/1d3XHjvYZ7uEMFIl7-A-bvF7QFhqmIkTJAoi2qcZ379o/edit#slide=id.gab385cffd9_0_4" id="vc7jFKjefhhxRNfemSIH-0">
          <mxCell style="text;html=1;align=center;verticalAlign=middle;resizable=0;points=[];autosize=1;fontSize=40;" parent="tMu2AY07BjXL__bY9_Zu-1" vertex="1">
            <mxGeometry x="335" y="40" width="180" height="50" as="geometry" />
          </mxCell>
        </UserObject>
        <UserObject label="time" link="data:page/id,dnS288IebJ6qI9hPRBI6" id="H4Lekn4TNWTcRFHpl3PN-0">
          <mxCell style="rounded=1;whiteSpace=wrap;html=1;fillColor=#0050ef;strokeColor=#001DBC;fontColor=#ffffff;fontSize=30;" parent="tMu2AY07BjXL__bY9_Zu-1" vertex="1">
            <mxGeometry x="680" y="470" width="120" height="60" as="geometry" />
          </mxCell>
        </UserObject>
      </root>
    </mxGraphModel>
  </diagram>
  <diagram id="UJ4rUbwFmK2HccrdMvZs" name="function add data">
    <mxGraphModel dx="868" dy="450" grid="1" gridSize="10" guides="1" tooltips="1" connect="1" arrows="1" fold="1" page="1" pageScale="1" pageWidth="850" pageHeight="1100" math="0" shadow="0">
      <root>
        <mxCell id="0" />
        <mxCell id="1" parent="0" />
        <mxCell id="GxIgmwF6AEYl4qobg7O2-7" value="" style="edgeStyle=orthogonalEdgeStyle;rounded=0;orthogonalLoop=1;jettySize=auto;html=1;exitX=0.5;exitY=1;exitDx=0;exitDy=0;" parent="1" source="escDsrRj-ADYRJYNNPUj-8" target="GxIgmwF6AEYl4qobg7O2-6" edge="1">
          <mxGeometry relative="1" as="geometry">
            <mxPoint x="366.5000000000002" y="160" as="sourcePoint" />
          </mxGeometry>
        </mxCell>
        <mxCell id="cUxxS8b9K74FWsSJAJ-N-3" style="edgeStyle=orthogonalEdgeStyle;rounded=0;orthogonalLoop=1;jettySize=auto;html=1;exitX=0.5;exitY=1;exitDx=0;exitDy=0;entryX=0.5;entryY=0;entryDx=0;entryDy=0;" parent="1" source="GxIgmwF6AEYl4qobg7O2-6" target="GxIgmwF6AEYl4qobg7O2-41" edge="1">
          <mxGeometry relative="1" as="geometry" />
        </mxCell>
        <mxCell id="GxIgmwF6AEYl4qobg7O2-6" value="กดปุ่ม +" style="rounded=1;whiteSpace=wrap;html=1;fillColor=#60a917;strokeColor=#2D7600;fontColor=#ffffff;" parent="1" vertex="1">
          <mxGeometry x="303.5" y="180" width="120" height="60" as="geometry" />
        </mxCell>
        <mxCell id="GxIgmwF6AEYl4qobg7O2-34" style="edgeStyle=orthogonalEdgeStyle;rounded=0;orthogonalLoop=1;jettySize=auto;html=1;exitX=0.5;exitY=1;exitDx=0;exitDy=0;entryX=0.587;entryY=-0.03;entryDx=0;entryDy=0;entryPerimeter=0;" parent="1" edge="1">
          <mxGeometry relative="1" as="geometry">
            <mxPoint x="367.5" y="440" as="sourcePoint" />
            <mxPoint x="367.94000000000005" y="468.20000000000005" as="targetPoint" />
          </mxGeometry>
        </mxCell>
        <mxCell id="GxIgmwF6AEYl4qobg7O2-8" value="รับชื่อข้อมูล" style="shape=parallelogram;perimeter=parallelogramPerimeter;whiteSpace=wrap;html=1;fixedSize=1;rounded=1;fillColor=#ffcccc;strokeColor=#36393d;" parent="1" vertex="1">
          <mxGeometry x="309.5" y="380" width="120" height="60" as="geometry" />
        </mxCell>
        <mxCell id="GxIgmwF6AEYl4qobg7O2-57" style="edgeStyle=orthogonalEdgeStyle;rounded=0;orthogonalLoop=1;jettySize=auto;html=1;exitX=0.5;exitY=1;exitDx=0;exitDy=0;entryX=0.5;entryY=0;entryDx=0;entryDy=0;" parent="1" source="GxIgmwF6AEYl4qobg7O2-25" target="GxIgmwF6AEYl4qobg7O2-36" edge="1">
          <mxGeometry relative="1" as="geometry" />
        </mxCell>
        <mxCell id="PTJRIy-gU6IDFAb6Rrq0-1" value="" style="edgeStyle=orthogonalEdgeStyle;rounded=0;orthogonalLoop=1;jettySize=auto;html=1;" parent="1" source="GxIgmwF6AEYl4qobg7O2-25" target="GxIgmwF6AEYl4qobg7O2-49" edge="1">
          <mxGeometry relative="1" as="geometry" />
        </mxCell>
        <UserObject label="ฟังก์ชั่นความสำคัญ" link="data:page/id,ApTdeAuse1WmLWojz0__" id="GxIgmwF6AEYl4qobg7O2-25">
          <mxCell style="shape=process;whiteSpace=wrap;html=1;backgroundOutline=1;fillColor=#1ba1e2;strokeColor=#006EAF;fontColor=#ffffff;" parent="1" vertex="1">
            <mxGeometry x="307.5" y="470" width="120" height="60" as="geometry" />
          </mxCell>
        </UserObject>
        <mxCell id="GxIgmwF6AEYl4qobg7O2-28" value="" style="endArrow=classic;html=1;" parent="1" edge="1">
          <mxGeometry width="50" height="50" relative="1" as="geometry">
            <mxPoint x="270" y="410" as="sourcePoint" />
            <mxPoint x="320" y="409.5" as="targetPoint" />
          </mxGeometry>
        </mxCell>
        <UserObject label="เลือกปฏิทิน" link="https://www.youtube.com/watch?v=fqfy-3IoVvs" id="GxIgmwF6AEYl4qobg7O2-36">
          <mxCell style="shape=process;whiteSpace=wrap;html=1;backgroundOutline=1;fillColor=#1ba1e2;strokeColor=#006EAF;fontColor=#ffffff;" parent="1" vertex="1">
            <mxGeometry x="307.5" y="570" width="120" height="60" as="geometry" />
          </mxCell>
        </UserObject>
        <mxCell id="GxIgmwF6AEYl4qobg7O2-50" value="" style="edgeStyle=orthogonalEdgeStyle;rounded=0;orthogonalLoop=1;jettySize=auto;html=1;" parent="1" target="GxIgmwF6AEYl4qobg7O2-49" edge="1">
          <mxGeometry relative="1" as="geometry">
            <mxPoint x="367.5" y="630" as="sourcePoint" />
          </mxGeometry>
        </mxCell>
        <mxCell id="GxIgmwF6AEYl4qobg7O2-62" style="edgeStyle=orthogonalEdgeStyle;rounded=0;orthogonalLoop=1;jettySize=auto;html=1;exitX=1;exitY=0.5;exitDx=0;exitDy=0;entryX=0;entryY=0.5;entryDx=0;entryDy=0;" parent="1" source="GxIgmwF6AEYl4qobg7O2-41" target="GxIgmwF6AEYl4qobg7O2-58" edge="1">
          <mxGeometry relative="1" as="geometry" />
        </mxCell>
        <mxCell id="cUxxS8b9K74FWsSJAJ-N-4" style="edgeStyle=orthogonalEdgeStyle;rounded=0;orthogonalLoop=1;jettySize=auto;html=1;exitX=0.5;exitY=1;exitDx=0;exitDy=0;entryX=0.454;entryY=0;entryDx=0;entryDy=0;entryPerimeter=0;" parent="1" source="GxIgmwF6AEYl4qobg7O2-41" target="GxIgmwF6AEYl4qobg7O2-8" edge="1">
          <mxGeometry relative="1" as="geometry" />
        </mxCell>
        <mxCell id="GxIgmwF6AEYl4qobg7O2-41" value="ยกเลิกไหม" style="rhombus;whiteSpace=wrap;html=1;fillColor=#a20025;strokeColor=#6F0000;fontColor=#ffffff;" parent="1" vertex="1">
          <mxGeometry x="288.5" y="290" width="150" height="50" as="geometry" />
        </mxCell>
        <mxCell id="GxIgmwF6AEYl4qobg7O2-43" value="yes" style="text;html=1;strokeColor=none;fillColor=none;align=center;verticalAlign=middle;whiteSpace=wrap;rounded=0;" parent="1" vertex="1">
          <mxGeometry x="456.5" y="290" width="40" height="20" as="geometry" />
        </mxCell>
        <mxCell id="GxIgmwF6AEYl4qobg7O2-45" style="edgeStyle=orthogonalEdgeStyle;rounded=0;orthogonalLoop=1;jettySize=auto;html=1;exitX=0.5;exitY=1;exitDx=0;exitDy=0;" parent="1" edge="1">
          <mxGeometry relative="1" as="geometry">
            <mxPoint x="365.5" y="350" as="sourcePoint" />
            <mxPoint x="365.5" y="350" as="targetPoint" />
          </mxGeometry>
        </mxCell>
        <mxCell id="GxIgmwF6AEYl4qobg7O2-46" value="No" style="text;html=1;strokeColor=none;fillColor=none;align=center;verticalAlign=middle;whiteSpace=wrap;rounded=0;" parent="1" vertex="1">
          <mxGeometry x="375.5" y="350" width="40" height="20" as="geometry" />
        </mxCell>
        <mxCell id="GxIgmwF6AEYl4qobg7O2-52" value="" style="edgeStyle=orthogonalEdgeStyle;rounded=0;orthogonalLoop=1;jettySize=auto;html=1;" parent="1" source="GxIgmwF6AEYl4qobg7O2-49" target="GxIgmwF6AEYl4qobg7O2-51" edge="1">
          <mxGeometry relative="1" as="geometry" />
        </mxCell>
        <mxCell id="GxIgmwF6AEYl4qobg7O2-63" style="edgeStyle=orthogonalEdgeStyle;rounded=0;orthogonalLoop=1;jettySize=auto;html=1;exitX=1;exitY=0.5;exitDx=0;exitDy=0;entryX=0.5;entryY=1;entryDx=0;entryDy=0;" parent="1" source="GxIgmwF6AEYl4qobg7O2-49" target="GxIgmwF6AEYl4qobg7O2-58" edge="1">
          <mxGeometry relative="1" as="geometry">
            <Array as="points">
              <mxPoint x="532" y="700" />
            </Array>
          </mxGeometry>
        </mxCell>
        <mxCell id="GxIgmwF6AEYl4qobg7O2-49" value="ยืนยันหรือยกเลิก" style="rhombus;whiteSpace=wrap;html=1;rounded=1;fillColor=#a20025;strokeColor=#6F0000;fontColor=#ffffff;" parent="1" vertex="1">
          <mxGeometry x="290" y="660" width="155" height="80" as="geometry" />
        </mxCell>
        <mxCell id="cbZBxffaovbIbeRrm6cp-4" value="" style="edgeStyle=orthogonalEdgeStyle;rounded=0;orthogonalLoop=1;jettySize=auto;html=1;fontSize=12;fontColor=#FF3333;" parent="1" source="GxIgmwF6AEYl4qobg7O2-51" target="cbZBxffaovbIbeRrm6cp-3" edge="1">
          <mxGeometry relative="1" as="geometry" />
        </mxCell>
        <mxCell id="GxIgmwF6AEYl4qobg7O2-51" value="แสดงผล" style="whiteSpace=wrap;html=1;rounded=1;fillColor=#60a917;strokeColor=#2D7600;fontColor=#ffffff;" parent="1" vertex="1">
          <mxGeometry x="307.5" y="780" width="120" height="60" as="geometry" />
        </mxCell>
        <mxCell id="GxIgmwF6AEYl4qobg7O2-53" value="ยืนยัน" style="text;html=1;strokeColor=none;fillColor=none;align=center;verticalAlign=middle;whiteSpace=wrap;rounded=0;" parent="1" vertex="1">
          <mxGeometry x="372.5" y="750" width="40" height="20" as="geometry" />
        </mxCell>
        <mxCell id="escDsrRj-ADYRJYNNPUj-4" value="" style="edgeStyle=orthogonalEdgeStyle;rounded=0;orthogonalLoop=1;jettySize=auto;html=1;entryX=0.5;entryY=0;entryDx=0;entryDy=0;" parent="1" source="GxIgmwF6AEYl4qobg7O2-58" target="escDsrRj-ADYRJYNNPUj-5" edge="1">
          <mxGeometry relative="1" as="geometry">
            <mxPoint x="581.5" y="315" as="targetPoint" />
          </mxGeometry>
        </mxCell>
        <mxCell id="GxIgmwF6AEYl4qobg7O2-58" value="" style="ellipse;whiteSpace=wrap;html=1;aspect=fixed;fillColor=#e51400;strokeColor=#B20000;fontColor=#ffffff;" parent="1" vertex="1">
          <mxGeometry x="516.5" y="300" width="30" height="30" as="geometry" />
        </mxCell>
        <mxCell id="GxIgmwF6AEYl4qobg7O2-66" value="ยกเลิก" style="text;html=1;strokeColor=none;fillColor=none;align=center;verticalAlign=middle;whiteSpace=wrap;rounded=0;" parent="1" vertex="1">
          <mxGeometry x="462.5" y="670" width="40" height="20" as="geometry" />
        </mxCell>
        <mxCell id="escDsrRj-ADYRJYNNPUj-9" style="edgeStyle=orthogonalEdgeStyle;rounded=0;orthogonalLoop=1;jettySize=auto;html=1;exitX=0.5;exitY=1;exitDx=0;exitDy=0;entryX=1;entryY=0.5;entryDx=0;entryDy=0;" parent="1" source="escDsrRj-ADYRJYNNPUj-5" target="escDsrRj-ADYRJYNNPUj-6" edge="1">
          <mxGeometry relative="1" as="geometry" />
        </mxCell>
        <UserObject label="กลับหน้า Main" link="data:page/id,lKxtB6D6K-3o9t04PIzB" id="escDsrRj-ADYRJYNNPUj-5">
          <mxCell style="rounded=1;whiteSpace=wrap;html=1;fillColor=#60a917;strokeColor=#2D7600;fontColor=#ffffff;" parent="1" vertex="1">
            <mxGeometry x="682.5" y="880" width="120" height="60" as="geometry" />
          </mxCell>
        </UserObject>
        <mxCell id="escDsrRj-ADYRJYNNPUj-6" value="End" style="ellipse;whiteSpace=wrap;html=1;rounded=1;fillColor=#fa6800;strokeColor=#C73500;fontColor=#ffffff;" parent="1" vertex="1">
          <mxGeometry x="309.5" y="970" width="100.5" height="60" as="geometry" />
        </mxCell>
        <mxCell id="escDsrRj-ADYRJYNNPUj-8" value="&lt;font style=&quot;font-size: 15px&quot;&gt;start&lt;/font&gt;" style="ellipse;whiteSpace=wrap;html=1;fillColor=#fa6800;strokeColor=#C73500;fontColor=#ffffff;" parent="1" vertex="1">
          <mxGeometry x="314.5" y="80" width="98" height="70" as="geometry" />
        </mxCell>
        <mxCell id="cbZBxffaovbIbeRrm6cp-5" style="edgeStyle=orthogonalEdgeStyle;rounded=0;orthogonalLoop=1;jettySize=auto;html=1;exitX=0.5;exitY=1;exitDx=0;exitDy=0;entryX=0.5;entryY=0;entryDx=0;entryDy=0;fontSize=12;fontColor=#FF3333;" parent="1" source="cbZBxffaovbIbeRrm6cp-3" target="escDsrRj-ADYRJYNNPUj-6" edge="1">
          <mxGeometry relative="1" as="geometry" />
        </mxCell>
        <mxCell id="BdFlf0P2uKBl2YrAL4UB-2" value="" style="edgeStyle=orthogonalEdgeStyle;rounded=0;orthogonalLoop=1;jettySize=auto;html=1;fontSize=12;fontColor=#000000;entryX=0;entryY=0.5;entryDx=0;entryDy=0;" parent="1" source="cbZBxffaovbIbeRrm6cp-3" target="BdFlf0P2uKBl2YrAL4UB-3" edge="1">
          <mxGeometry relative="1" as="geometry">
            <mxPoint x="482.5" y="910" as="targetPoint" />
          </mxGeometry>
        </mxCell>
        <mxCell id="cbZBxffaovbIbeRrm6cp-3" value="ALL_ID.add" style="whiteSpace=wrap;html=1;rounded=1;fillColor=#d80073;strokeColor=#A50040;fontColor=#ffffff;" parent="1" vertex="1">
          <mxGeometry x="307.5" y="880" width="120" height="60" as="geometry" />
        </mxCell>
        <mxCell id="BdFlf0P2uKBl2YrAL4UB-4" value="" style="edgeStyle=orthogonalEdgeStyle;rounded=0;orthogonalLoop=1;jettySize=auto;html=1;fontSize=12;fontColor=#000000;" parent="1" source="BdFlf0P2uKBl2YrAL4UB-3" target="escDsrRj-ADYRJYNNPUj-5" edge="1">
          <mxGeometry relative="1" as="geometry" />
        </mxCell>
        <UserObject label="ID" link="data:page/id,a5gWgNcX6J9hdcYbWf5L" id="BdFlf0P2uKBl2YrAL4UB-3">
          <mxCell style="shape=process;whiteSpace=wrap;html=1;backgroundOutline=1;fontSize=12;fontColor=#ffffff;fillColor=#1ba1e2;strokeColor=#006EAF;" parent="1" vertex="1">
            <mxGeometry x="502.5" y="880" width="120" height="60" as="geometry" />
          </mxCell>
        </UserObject>
        <mxCell id="cUxxS8b9K74FWsSJAJ-N-2" value="&lt;font size=&quot;1&quot;&gt;&lt;b style=&quot;font-size: 24px&quot;&gt;Add Data&lt;/b&gt;&lt;/font&gt;" style="text;html=1;strokeColor=none;fillColor=none;align=center;verticalAlign=middle;whiteSpace=wrap;rounded=0;" parent="1" vertex="1">
          <mxGeometry x="307.75" y="20" width="121.75" height="60" as="geometry" />
        </mxCell>
      </root>
    </mxGraphModel>
  </diagram>
  <diagram id="zMalPGHfQV55tFcWnKI-" name="function update">
    <mxGraphModel dx="868" dy="450" grid="1" gridSize="10" guides="1" tooltips="1" connect="1" arrows="1" fold="1" page="1" pageScale="1" pageWidth="850" pageHeight="1100" math="0" shadow="0">
      <root>
        <mxCell id="v0lEeN28OU5zNVM8-bEz-0" />
        <mxCell id="v0lEeN28OU5zNVM8-bEz-1" parent="v0lEeN28OU5zNVM8-bEz-0" />
        <mxCell id="Mboezx3nB7upfzZJhE_H-4" style="edgeStyle=orthogonalEdgeStyle;rounded=0;orthogonalLoop=1;jettySize=auto;html=1;exitX=0.5;exitY=1;exitDx=0;exitDy=0;entryX=0.5;entryY=0;entryDx=0;entryDy=0;" parent="v0lEeN28OU5zNVM8-bEz-1" source="LF5bn6-ZuCFVN4fUai8p-2" target="LF5bn6-ZuCFVN4fUai8p-12" edge="1">
          <mxGeometry relative="1" as="geometry" />
        </mxCell>
        <mxCell id="LF5bn6-ZuCFVN4fUai8p-2" value="อัพเดตID" style="rounded=1;whiteSpace=wrap;html=1;fillColor=#fff2cc;strokeColor=#d6b656;" parent="v0lEeN28OU5zNVM8-bEz-1" vertex="1">
          <mxGeometry x="341.25" y="220" width="113.5" height="50" as="geometry" />
        </mxCell>
        <mxCell id="LF5bn6-ZuCFVN4fUai8p-5" style="edgeStyle=orthogonalEdgeStyle;rounded=0;orthogonalLoop=1;jettySize=auto;html=1;exitX=0.5;exitY=1;exitDx=0;exitDy=0;entryX=0.5;entryY=0;entryDx=0;entryDy=0;" parent="v0lEeN28OU5zNVM8-bEz-1" source="LF5bn6-ZuCFVN4fUai8p-7" target="LF5bn6-ZuCFVN4fUai8p-9" edge="1">
          <mxGeometry relative="1" as="geometry" />
        </mxCell>
        <mxCell id="LF5bn6-ZuCFVN4fUai8p-6" value="" style="edgeStyle=orthogonalEdgeStyle;rounded=0;orthogonalLoop=1;jettySize=auto;html=1;" parent="v0lEeN28OU5zNVM8-bEz-1" source="LF5bn6-ZuCFVN4fUai8p-7" target="LF5bn6-ZuCFVN4fUai8p-19" edge="1">
          <mxGeometry relative="1" as="geometry" />
        </mxCell>
        <UserObject label="ฟังก์ชั่นความสำคัญ" link="data:page/id,ApTdeAuse1WmLWojz0__" id="LF5bn6-ZuCFVN4fUai8p-7">
          <mxCell style="shape=process;whiteSpace=wrap;html=1;backgroundOutline=1;fillColor=#dae8fc;strokeColor=#6c8ebf;" parent="v0lEeN28OU5zNVM8-bEz-1" vertex="1">
            <mxGeometry x="336.5" y="510" width="120" height="60" as="geometry" />
          </mxCell>
        </UserObject>
        <UserObject label="เลือกปฏิทิน" link="https://www.youtube.com/watch?v=fqfy-3IoVvs" id="LF5bn6-ZuCFVN4fUai8p-9">
          <mxCell style="shape=process;whiteSpace=wrap;html=1;backgroundOutline=1;fillColor=#dae8fc;strokeColor=#6c8ebf;" parent="v0lEeN28OU5zNVM8-bEz-1" vertex="1">
            <mxGeometry x="337.5" y="610" width="120" height="60" as="geometry" />
          </mxCell>
        </UserObject>
        <mxCell id="JIQL_ZYYlZNzj0JJzNEo-15" style="edgeStyle=orthogonalEdgeStyle;rounded=0;orthogonalLoop=1;jettySize=auto;html=1;exitX=1;exitY=0.5;exitDx=0;exitDy=0;entryX=0.5;entryY=0;entryDx=0;entryDy=0;fontSize=12;fontColor=#FF3333;" parent="v0lEeN28OU5zNVM8-bEz-1" source="LF5bn6-ZuCFVN4fUai8p-12" target="JIQL_ZYYlZNzj0JJzNEo-13" edge="1">
          <mxGeometry relative="1" as="geometry" />
        </mxCell>
        <mxCell id="Mboezx3nB7upfzZJhE_H-5" style="edgeStyle=orthogonalEdgeStyle;rounded=0;orthogonalLoop=1;jettySize=auto;html=1;exitX=0.5;exitY=1;exitDx=0;exitDy=0;entryX=0.5;entryY=0;entryDx=0;entryDy=0;" parent="v0lEeN28OU5zNVM8-bEz-1" source="LF5bn6-ZuCFVN4fUai8p-12" target="LF5bn6-ZuCFVN4fUai8p-30" edge="1">
          <mxGeometry relative="1" as="geometry" />
        </mxCell>
        <mxCell id="LF5bn6-ZuCFVN4fUai8p-12" value="ยกเลิกไหม" style="rhombus;whiteSpace=wrap;html=1;fillColor=#e1d5e7;strokeColor=#9673a6;" parent="v0lEeN28OU5zNVM8-bEz-1" vertex="1">
          <mxGeometry x="321.5" y="300" width="150" height="70" as="geometry" />
        </mxCell>
        <mxCell id="LF5bn6-ZuCFVN4fUai8p-13" value="yes" style="text;html=1;strokeColor=none;fillColor=none;align=center;verticalAlign=middle;whiteSpace=wrap;rounded=0;" parent="v0lEeN28OU5zNVM8-bEz-1" vertex="1">
          <mxGeometry x="486.5" y="330" width="40" height="20" as="geometry" />
        </mxCell>
        <mxCell id="LF5bn6-ZuCFVN4fUai8p-15" style="edgeStyle=orthogonalEdgeStyle;rounded=0;orthogonalLoop=1;jettySize=auto;html=1;exitX=0.5;exitY=1;exitDx=0;exitDy=0;" parent="v0lEeN28OU5zNVM8-bEz-1" edge="1">
          <mxGeometry relative="1" as="geometry">
            <mxPoint x="395.4999999999998" y="390" as="sourcePoint" />
            <mxPoint x="395.4999999999998" y="390" as="targetPoint" />
          </mxGeometry>
        </mxCell>
        <mxCell id="LF5bn6-ZuCFVN4fUai8p-16" value="No" style="text;html=1;strokeColor=none;fillColor=none;align=center;verticalAlign=middle;whiteSpace=wrap;rounded=0;" parent="v0lEeN28OU5zNVM8-bEz-1" vertex="1">
          <mxGeometry x="431.5" y="380" width="40" height="20" as="geometry" />
        </mxCell>
        <mxCell id="Mboezx3nB7upfzZJhE_H-9" style="edgeStyle=orthogonalEdgeStyle;rounded=0;orthogonalLoop=1;jettySize=auto;html=1;exitX=0;exitY=0.5;exitDx=0;exitDy=0;entryX=1;entryY=0.5;entryDx=0;entryDy=0;" parent="v0lEeN28OU5zNVM8-bEz-1" source="LF5bn6-ZuCFVN4fUai8p-19" target="JIQL_ZYYlZNzj0JJzNEo-6" edge="1">
          <mxGeometry relative="1" as="geometry" />
        </mxCell>
        <mxCell id="Mboezx3nB7upfzZJhE_H-10" style="edgeStyle=orthogonalEdgeStyle;rounded=0;orthogonalLoop=1;jettySize=auto;html=1;exitX=1;exitY=0.5;exitDx=0;exitDy=0;entryX=0;entryY=0.5;entryDx=0;entryDy=0;" parent="v0lEeN28OU5zNVM8-bEz-1" source="LF5bn6-ZuCFVN4fUai8p-19" target="JIQL_ZYYlZNzj0JJzNEo-13" edge="1">
          <mxGeometry relative="1" as="geometry" />
        </mxCell>
        <mxCell id="Mboezx3nB7upfzZJhE_H-12" style="edgeStyle=orthogonalEdgeStyle;rounded=0;orthogonalLoop=1;jettySize=auto;html=1;exitX=0.5;exitY=1;exitDx=0;exitDy=0;entryX=0.5;entryY=0;entryDx=0;entryDy=0;" parent="v0lEeN28OU5zNVM8-bEz-1" source="LF5bn6-ZuCFVN4fUai8p-19" target="LF5bn6-ZuCFVN4fUai8p-21" edge="1">
          <mxGeometry relative="1" as="geometry" />
        </mxCell>
        <mxCell id="LF5bn6-ZuCFVN4fUai8p-19" value="ยืนยันหรือยกเลิกหรือลบ" style="rhombus;whiteSpace=wrap;html=1;rounded=1;fillColor=#e1d5e7;strokeColor=#9673a6;" parent="v0lEeN28OU5zNVM8-bEz-1" vertex="1">
          <mxGeometry x="316.5" y="700" width="155" height="80" as="geometry" />
        </mxCell>
        <mxCell id="Mboezx3nB7upfzZJhE_H-13" style="edgeStyle=orthogonalEdgeStyle;rounded=0;orthogonalLoop=1;jettySize=auto;html=1;exitX=0.5;exitY=1;exitDx=0;exitDy=0;entryX=0.5;entryY=0;entryDx=0;entryDy=0;" parent="v0lEeN28OU5zNVM8-bEz-1" source="LF5bn6-ZuCFVN4fUai8p-21" target="LF5bn6-ZuCFVN4fUai8p-27" edge="1">
          <mxGeometry relative="1" as="geometry" />
        </mxCell>
        <mxCell id="LF5bn6-ZuCFVN4fUai8p-21" value="แสดงผล" style="whiteSpace=wrap;html=1;rounded=1;fillColor=#ffe6cc;strokeColor=#d79b00;" parent="v0lEeN28OU5zNVM8-bEz-1" vertex="1">
          <mxGeometry x="333.75" y="820" width="120" height="60" as="geometry" />
        </mxCell>
        <mxCell id="LF5bn6-ZuCFVN4fUai8p-22" value="ยืนยัน" style="text;html=1;strokeColor=none;fillColor=none;align=center;verticalAlign=middle;whiteSpace=wrap;rounded=0;" parent="v0lEeN28OU5zNVM8-bEz-1" vertex="1">
          <mxGeometry x="402.5" y="790" width="40" height="20" as="geometry" />
        </mxCell>
        <mxCell id="LF5bn6-ZuCFVN4fUai8p-25" value="ยกเลิก" style="text;html=1;strokeColor=none;fillColor=none;align=center;verticalAlign=middle;whiteSpace=wrap;rounded=0;" parent="v0lEeN28OU5zNVM8-bEz-1" vertex="1">
          <mxGeometry x="492.5" y="710" width="40" height="20" as="geometry" />
        </mxCell>
        <mxCell id="JIQL_ZYYlZNzj0JJzNEo-21" value="" style="edgeStyle=orthogonalEdgeStyle;rounded=0;orthogonalLoop=1;jettySize=auto;html=1;fontSize=12;fontColor=#FF3333;" parent="v0lEeN28OU5zNVM8-bEz-1" source="LF5bn6-ZuCFVN4fUai8p-27" target="LF5bn6-ZuCFVN4fUai8p-28" edge="1">
          <mxGeometry relative="1" as="geometry" />
        </mxCell>
        <UserObject label="กลับหน้า Main" link="data:page/id,lKxtB6D6K-3o9t04PIzB" id="LF5bn6-ZuCFVN4fUai8p-27">
          <mxCell style="rounded=1;whiteSpace=wrap;html=1;fillColor=#ffe6cc;strokeColor=#d79b00;" parent="v0lEeN28OU5zNVM8-bEz-1" vertex="1">
            <mxGeometry x="333.75" y="920" width="120" height="60" as="geometry" />
          </mxCell>
        </UserObject>
        <mxCell id="LF5bn6-ZuCFVN4fUai8p-28" value="End" style="ellipse;whiteSpace=wrap;html=1;rounded=1;fillColor=#f8cecc;strokeColor=#b85450;" parent="v0lEeN28OU5zNVM8-bEz-1" vertex="1">
          <mxGeometry x="337.75" y="1020" width="112.5" height="60" as="geometry" />
        </mxCell>
        <mxCell id="Mboezx3nB7upfzZJhE_H-1" style="edgeStyle=orthogonalEdgeStyle;rounded=0;orthogonalLoop=1;jettySize=auto;html=1;exitX=0.5;exitY=1;exitDx=0;exitDy=0;entryX=0.5;entryY=0;entryDx=0;entryDy=0;" parent="v0lEeN28OU5zNVM8-bEz-1" source="LF5bn6-ZuCFVN4fUai8p-29" target="JIQL_ZYYlZNzj0JJzNEo-1" edge="1">
          <mxGeometry relative="1" as="geometry" />
        </mxCell>
        <mxCell id="LF5bn6-ZuCFVN4fUai8p-29" value="Start" style="ellipse;whiteSpace=wrap;html=1;fillColor=#f8cecc;strokeColor=#b85450;" parent="v0lEeN28OU5zNVM8-bEz-1" vertex="1">
          <mxGeometry x="346.25" y="50" width="102.5" height="60" as="geometry" />
        </mxCell>
        <mxCell id="Mboezx3nB7upfzZJhE_H-8" style="edgeStyle=orthogonalEdgeStyle;rounded=0;orthogonalLoop=1;jettySize=auto;html=1;exitX=0.5;exitY=1;exitDx=0;exitDy=0;entryX=0.5;entryY=0;entryDx=0;entryDy=0;" parent="v0lEeN28OU5zNVM8-bEz-1" source="LF5bn6-ZuCFVN4fUai8p-30" target="LF5bn6-ZuCFVN4fUai8p-7" edge="1">
          <mxGeometry relative="1" as="geometry" />
        </mxCell>
        <mxCell id="LF5bn6-ZuCFVN4fUai8p-30" value="&lt;font color=&quot;#000000&quot;&gt;แก้ไขข้อมูล&lt;/font&gt;" style="rounded=1;whiteSpace=wrap;html=1;fontSize=12;fillColor=#ffe6cc;strokeColor=#d79b00;" parent="v0lEeN28OU5zNVM8-bEz-1" vertex="1">
          <mxGeometry x="336.5" y="410" width="120" height="60" as="geometry" />
        </mxCell>
        <mxCell id="Mboezx3nB7upfzZJhE_H-2" style="edgeStyle=orthogonalEdgeStyle;rounded=0;orthogonalLoop=1;jettySize=auto;html=1;exitX=0.5;exitY=1;exitDx=0;exitDy=0;entryX=0.5;entryY=0;entryDx=0;entryDy=0;" parent="v0lEeN28OU5zNVM8-bEz-1" source="JIQL_ZYYlZNzj0JJzNEo-1" target="LF5bn6-ZuCFVN4fUai8p-2" edge="1">
          <mxGeometry relative="1" as="geometry" />
        </mxCell>
        <mxCell id="JIQL_ZYYlZNzj0JJzNEo-1" value="&lt;font color=&quot;#000000&quot;&gt;Check ID&lt;/font&gt;" style="rounded=1;whiteSpace=wrap;html=1;fontSize=12;fillColor=#ffe6cc;strokeColor=#d79b00;" parent="v0lEeN28OU5zNVM8-bEz-1" vertex="1">
          <mxGeometry x="345.25" y="140" width="102.5" height="50" as="geometry" />
        </mxCell>
        <mxCell id="JIQL_ZYYlZNzj0JJzNEo-24" style="edgeStyle=orthogonalEdgeStyle;rounded=0;orthogonalLoop=1;jettySize=auto;html=1;exitX=0.5;exitY=1;exitDx=0;exitDy=0;entryX=0;entryY=0.5;entryDx=0;entryDy=0;fontSize=12;fontColor=#000000;entryPerimeter=0;" parent="v0lEeN28OU5zNVM8-bEz-1" source="JIQL_ZYYlZNzj0JJzNEo-6" target="LF5bn6-ZuCFVN4fUai8p-27" edge="1">
          <mxGeometry relative="1" as="geometry" />
        </mxCell>
        <UserObject label="&lt;font color=&quot;#000000&quot;&gt;ฟังก์ชั่น ID&lt;/font&gt;" link="data:page/id,a5gWgNcX6J9hdcYbWf5L" id="JIQL_ZYYlZNzj0JJzNEo-6">
          <mxCell style="shape=process;whiteSpace=wrap;html=1;backgroundOutline=1;fontSize=12;fillColor=#dae8fc;strokeColor=#6c8ebf;" parent="v0lEeN28OU5zNVM8-bEz-1" vertex="1">
            <mxGeometry x="150" y="710" width="120" height="60" as="geometry" />
          </mxCell>
        </UserObject>
        <mxCell id="JIQL_ZYYlZNzj0JJzNEo-19" style="edgeStyle=orthogonalEdgeStyle;rounded=0;orthogonalLoop=1;jettySize=auto;html=1;exitX=0.5;exitY=1;exitDx=0;exitDy=0;entryX=1;entryY=0.5;entryDx=0;entryDy=0;fontSize=12;fontColor=#FF3333;" parent="v0lEeN28OU5zNVM8-bEz-1" source="JIQL_ZYYlZNzj0JJzNEo-13" target="LF5bn6-ZuCFVN4fUai8p-27" edge="1">
          <mxGeometry relative="1" as="geometry" />
        </mxCell>
        <mxCell id="JIQL_ZYYlZNzj0JJzNEo-13" value="" style="ellipse;whiteSpace=wrap;html=1;aspect=fixed;fontSize=12;fontColor=#ffffff;fillColor=#a0522d;strokeColor=#6D1F00;" parent="v0lEeN28OU5zNVM8-bEz-1" vertex="1">
          <mxGeometry x="590" y="720" width="40" height="40" as="geometry" />
        </mxCell>
        <mxCell id="JIQL_ZYYlZNzj0JJzNEo-22" value="ลบ" style="text;html=1;align=center;verticalAlign=middle;resizable=0;points=[];autosize=1;fontSize=12;" parent="v0lEeN28OU5zNVM8-bEz-1" vertex="1">
          <mxGeometry x="285" y="710" width="30" height="20" as="geometry" />
        </mxCell>
        <mxCell id="Mboezx3nB7upfzZJhE_H-0" value="&lt;span style=&quot;font-size: 28px&quot;&gt;&lt;b&gt;Update ID&lt;/b&gt;&lt;/span&gt;" style="text;html=1;strokeColor=none;fillColor=none;align=center;verticalAlign=middle;whiteSpace=wrap;rounded=0;" parent="v0lEeN28OU5zNVM8-bEz-1" vertex="1">
          <mxGeometry x="140" y="40" width="140" height="60" as="geometry" />
        </mxCell>
      </root>
    </mxGraphModel>
  </diagram>
  <diagram id="ApTdeAuse1WmLWojz0__" name="function check important">
    <mxGraphModel dx="1736" dy="900" grid="1" gridSize="10" guides="1" tooltips="1" connect="1" arrows="1" fold="1" page="1" pageScale="1" pageWidth="850" pageHeight="1100" math="0" shadow="0">
      <root>
        <mxCell id="U7CppzZx9__meJYJCQPd-0" />
        <mxCell id="U7CppzZx9__meJYJCQPd-1" parent="U7CppzZx9__meJYJCQPd-0" />
        <mxCell id="vn8NXZQ-zpQzx2Ql7Aq0-0" value="" style="edgeStyle=orthogonalEdgeStyle;rounded=0;orthogonalLoop=1;jettySize=auto;html=1;" parent="U7CppzZx9__meJYJCQPd-1" source="vn8NXZQ-zpQzx2Ql7Aq0-1" target="vn8NXZQ-zpQzx2Ql7Aq0-7" edge="1">
          <mxGeometry relative="1" as="geometry" />
        </mxCell>
        <mxCell id="vn8NXZQ-zpQzx2Ql7Aq0-1" value="start" style="ellipse;whiteSpace=wrap;html=1;fontSize=27;fillColor=#cce5ff;strokeColor=#36393d;" parent="U7CppzZx9__meJYJCQPd-1" vertex="1">
          <mxGeometry x="355" y="110" width="120" height="80" as="geometry" />
        </mxCell>
        <mxCell id="vn8NXZQ-zpQzx2Ql7Aq0-2" style="edgeStyle=orthogonalEdgeStyle;rounded=0;orthogonalLoop=1;jettySize=auto;html=1;exitX=0;exitY=0.5;exitDx=0;exitDy=0;entryX=0.5;entryY=0;entryDx=0;entryDy=0;" parent="U7CppzZx9__meJYJCQPd-1" source="vn8NXZQ-zpQzx2Ql7Aq0-7" edge="1">
          <mxGeometry relative="1" as="geometry">
            <mxPoint x="100" y="340" as="targetPoint" />
          </mxGeometry>
        </mxCell>
        <mxCell id="vn8NXZQ-zpQzx2Ql7Aq0-4" style="edgeStyle=orthogonalEdgeStyle;rounded=0;orthogonalLoop=1;jettySize=auto;html=1;exitX=1;exitY=0.5;exitDx=0;exitDy=0;entryX=0.5;entryY=0;entryDx=0;entryDy=0;" parent="U7CppzZx9__meJYJCQPd-1" source="vn8NXZQ-zpQzx2Ql7Aq0-7" edge="1">
          <mxGeometry relative="1" as="geometry">
            <mxPoint x="720" y="340" as="targetPoint" />
          </mxGeometry>
        </mxCell>
        <mxCell id="vn8NXZQ-zpQzx2Ql7Aq0-5" style="edgeStyle=orthogonalEdgeStyle;rounded=0;orthogonalLoop=1;jettySize=auto;html=1;exitX=0;exitY=1;exitDx=0;exitDy=0;" parent="U7CppzZx9__meJYJCQPd-1" source="vn8NXZQ-zpQzx2Ql7Aq0-7" edge="1">
          <mxGeometry relative="1" as="geometry">
            <mxPoint x="260" y="340" as="targetPoint" />
            <Array as="points">
              <mxPoint x="260" y="280" />
            </Array>
          </mxGeometry>
        </mxCell>
        <mxCell id="vn8NXZQ-zpQzx2Ql7Aq0-6" style="edgeStyle=orthogonalEdgeStyle;rounded=0;orthogonalLoop=1;jettySize=auto;html=1;exitX=1;exitY=1;exitDx=0;exitDy=0;entryX=0.5;entryY=0;entryDx=0;entryDy=0;" parent="U7CppzZx9__meJYJCQPd-1" source="vn8NXZQ-zpQzx2Ql7Aq0-7" edge="1">
          <mxGeometry relative="1" as="geometry">
            <mxPoint x="570" y="340" as="targetPoint" />
          </mxGeometry>
        </mxCell>
        <mxCell id="vn8NXZQ-zpQzx2Ql7Aq0-7" value="กดปุ่มสำคัญไหน" style="rhombus;whiteSpace=wrap;html=1;fillColor=#fad9d5;strokeColor=#ae4132;" parent="U7CppzZx9__meJYJCQPd-1" vertex="1">
          <mxGeometry x="343" y="220" width="145" height="80" as="geometry" />
        </mxCell>
        <mxCell id="vn8NXZQ-zpQzx2Ql7Aq0-31" style="edgeStyle=orthogonalEdgeStyle;rounded=0;orthogonalLoop=1;jettySize=auto;html=1;exitX=0.5;exitY=1;exitDx=0;exitDy=0;entryX=0;entryY=0.5;entryDx=0;entryDy=0;" parent="U7CppzZx9__meJYJCQPd-1" source="vn8NXZQ-zpQzx2Ql7Aq0-18" target="vn8NXZQ-zpQzx2Ql7Aq0-27" edge="1">
          <mxGeometry relative="1" as="geometry" />
        </mxCell>
        <mxCell id="vn8NXZQ-zpQzx2Ql7Aq0-18" value="ค่าสีแดง" style="rounded=1;whiteSpace=wrap;html=1;fillColor=#fad7ac;strokeColor=#b46504;" parent="U7CppzZx9__meJYJCQPd-1" vertex="1">
          <mxGeometry x="40" y="340" width="120" height="60" as="geometry" />
        </mxCell>
        <mxCell id="vn8NXZQ-zpQzx2Ql7Aq0-30" style="edgeStyle=orthogonalEdgeStyle;rounded=0;orthogonalLoop=1;jettySize=auto;html=1;exitX=0.5;exitY=1;exitDx=0;exitDy=0;entryX=0;entryY=0;entryDx=0;entryDy=0;" parent="U7CppzZx9__meJYJCQPd-1" source="vn8NXZQ-zpQzx2Ql7Aq0-19" target="vn8NXZQ-zpQzx2Ql7Aq0-27" edge="1">
          <mxGeometry relative="1" as="geometry" />
        </mxCell>
        <mxCell id="vn8NXZQ-zpQzx2Ql7Aq0-19" value="ค่าสีแดงอ่อน" style="rounded=1;whiteSpace=wrap;html=1;fillColor=#fad7ac;strokeColor=#b46504;" parent="U7CppzZx9__meJYJCQPd-1" vertex="1">
          <mxGeometry x="200" y="340" width="120" height="60" as="geometry" />
        </mxCell>
        <mxCell id="vn8NXZQ-zpQzx2Ql7Aq0-32" style="edgeStyle=orthogonalEdgeStyle;rounded=0;orthogonalLoop=1;jettySize=auto;html=1;exitX=0.5;exitY=1;exitDx=0;exitDy=0;entryX=1;entryY=0;entryDx=0;entryDy=0;" parent="U7CppzZx9__meJYJCQPd-1" source="vn8NXZQ-zpQzx2Ql7Aq0-20" target="vn8NXZQ-zpQzx2Ql7Aq0-27" edge="1">
          <mxGeometry relative="1" as="geometry" />
        </mxCell>
        <mxCell id="vn8NXZQ-zpQzx2Ql7Aq0-20" value="ค่าสีส้ม" style="rounded=1;whiteSpace=wrap;html=1;fillColor=#fad7ac;strokeColor=#b46504;" parent="U7CppzZx9__meJYJCQPd-1" vertex="1">
          <mxGeometry x="510" y="340" width="120" height="60" as="geometry" />
        </mxCell>
        <mxCell id="vn8NXZQ-zpQzx2Ql7Aq0-33" style="edgeStyle=orthogonalEdgeStyle;rounded=0;orthogonalLoop=1;jettySize=auto;html=1;entryX=1;entryY=0.5;entryDx=0;entryDy=0;" parent="U7CppzZx9__meJYJCQPd-1" source="vn8NXZQ-zpQzx2Ql7Aq0-21" target="vn8NXZQ-zpQzx2Ql7Aq0-27" edge="1">
          <mxGeometry relative="1" as="geometry">
            <mxPoint x="720" y="520" as="targetPoint" />
            <Array as="points">
              <mxPoint x="720" y="510" />
            </Array>
          </mxGeometry>
        </mxCell>
        <mxCell id="vn8NXZQ-zpQzx2Ql7Aq0-21" value="ค่าสีเหลือง" style="rounded=1;whiteSpace=wrap;html=1;fillColor=#fad7ac;strokeColor=#b46504;" parent="U7CppzZx9__meJYJCQPd-1" vertex="1">
          <mxGeometry x="660" y="340" width="120" height="60" as="geometry" />
        </mxCell>
        <mxCell id="vn8NXZQ-zpQzx2Ql7Aq0-22" value="สำคัญและเร่งรีบ" style="text;html=1;align=center;verticalAlign=middle;resizable=0;points=[];autosize=1;" parent="U7CppzZx9__meJYJCQPd-1" vertex="1">
          <mxGeometry x="145" y="240" width="90" height="20" as="geometry" />
        </mxCell>
        <mxCell id="vn8NXZQ-zpQzx2Ql7Aq0-23" value="สำคัญ ไม่รีบ" style="text;html=1;align=center;verticalAlign=middle;resizable=0;points=[];autosize=1;" parent="U7CppzZx9__meJYJCQPd-1" vertex="1">
          <mxGeometry x="260" y="260" width="80" height="20" as="geometry" />
        </mxCell>
        <mxCell id="vn8NXZQ-zpQzx2Ql7Aq0-24" value="ไม่สำคัญ แต่รีบ" style="text;html=1;align=center;verticalAlign=middle;resizable=0;points=[];autosize=1;" parent="U7CppzZx9__meJYJCQPd-1" vertex="1">
          <mxGeometry x="465" y="260" width="90" height="20" as="geometry" />
        </mxCell>
        <mxCell id="vn8NXZQ-zpQzx2Ql7Aq0-25" value="ไม่รีบ ไม่สำคัญ" style="text;html=1;align=center;verticalAlign=middle;resizable=0;points=[];autosize=1;" parent="U7CppzZx9__meJYJCQPd-1" vertex="1">
          <mxGeometry x="555" y="230" width="90" height="20" as="geometry" />
        </mxCell>
        <mxCell id="vn8NXZQ-zpQzx2Ql7Aq0-36" value="" style="edgeStyle=orthogonalEdgeStyle;rounded=0;orthogonalLoop=1;jettySize=auto;html=1;" parent="U7CppzZx9__meJYJCQPd-1" source="vn8NXZQ-zpQzx2Ql7Aq0-27" target="vn8NXZQ-zpQzx2Ql7Aq0-35" edge="1">
          <mxGeometry relative="1" as="geometry" />
        </mxCell>
        <mxCell id="vn8NXZQ-zpQzx2Ql7Aq0-27" value="" style="ellipse;whiteSpace=wrap;html=1;aspect=fixed;fillColor=#1ba1e2;strokeColor=#006EAF;fontColor=#ffffff;" parent="U7CppzZx9__meJYJCQPd-1" vertex="1">
          <mxGeometry x="395.5" y="490" width="40" height="40" as="geometry" />
        </mxCell>
        <mxCell id="OTkSkRib22NhCmWGFm10-1" value="" style="edgeStyle=orthogonalEdgeStyle;rounded=0;orthogonalLoop=1;jettySize=auto;html=1;" parent="U7CppzZx9__meJYJCQPd-1" source="vn8NXZQ-zpQzx2Ql7Aq0-35" target="OTkSkRib22NhCmWGFm10-0" edge="1">
          <mxGeometry relative="1" as="geometry" />
        </mxCell>
        <mxCell id="vn8NXZQ-zpQzx2Ql7Aq0-35" value="เก็บค่า" style="rounded=1;whiteSpace=wrap;html=1;fillColor=#d0cee2;strokeColor=#56517e;" parent="U7CppzZx9__meJYJCQPd-1" vertex="1">
          <mxGeometry x="355" y="570" width="120" height="60" as="geometry" />
        </mxCell>
        <mxCell id="QA_SCyS69L3zeWfnb9XE-5" value="" style="edgeStyle=orthogonalEdgeStyle;rounded=0;orthogonalLoop=1;jettySize=auto;html=1;" parent="U7CppzZx9__meJYJCQPd-1" source="OTkSkRib22NhCmWGFm10-0" target="QA_SCyS69L3zeWfnb9XE-0" edge="1">
          <mxGeometry relative="1" as="geometry" />
        </mxCell>
        <mxCell id="OTkSkRib22NhCmWGFm10-0" value="return ค่า" style="rounded=1;whiteSpace=wrap;html=1;fillColor=#d0cee2;strokeColor=#56517e;" parent="U7CppzZx9__meJYJCQPd-1" vertex="1">
          <mxGeometry x="355" y="670" width="120" height="60" as="geometry" />
        </mxCell>
        <UserObject label="&amp;nbsp;End" id="OTkSkRib22NhCmWGFm10-4">
          <mxCell style="ellipse;whiteSpace=wrap;html=1;rounded=1;fillColor=#d5e8d4;strokeColor=#82b366;gradientColor=#97d077;" parent="U7CppzZx9__meJYJCQPd-1" vertex="1">
            <mxGeometry x="355" y="870" width="120" height="80" as="geometry" />
          </mxCell>
        </UserObject>
        <mxCell id="QA_SCyS69L3zeWfnb9XE-6" value="" style="edgeStyle=orthogonalEdgeStyle;rounded=0;orthogonalLoop=1;jettySize=auto;html=1;" parent="U7CppzZx9__meJYJCQPd-1" source="QA_SCyS69L3zeWfnb9XE-0" target="OTkSkRib22NhCmWGFm10-4" edge="1">
          <mxGeometry relative="1" as="geometry" />
        </mxCell>
        <UserObject label="main" link="data:page/id,lKxtB6D6K-3o9t04PIzB" id="QA_SCyS69L3zeWfnb9XE-0">
          <mxCell style="rounded=1;whiteSpace=wrap;html=1;fillColor=#d0cee2;strokeColor=#56517e;" parent="U7CppzZx9__meJYJCQPd-1" vertex="1">
            <mxGeometry x="355.5" y="780" width="120" height="60" as="geometry" />
          </mxCell>
        </UserObject>
        <mxCell id="_7pGHJa7b0wVQJP2x8iK-1" value="&lt;b&gt;สำคัญและเร่งรีบ&lt;/b&gt; &lt;br&gt;คือแบบสำคัญและเร่งรีบให้คนอื่นทำแทนไม่ได้ ต้องทำด้วยตัวเองและทำทันที" style="text;html=1;strokeColor=#6F0000;fillColor=#a20025;align=center;verticalAlign=middle;whiteSpace=wrap;rounded=0;fontColor=#ffffff;" parent="U7CppzZx9__meJYJCQPd-1" vertex="1">
          <mxGeometry x="30" y="545" width="230" height="50" as="geometry" />
        </mxCell>
        <mxCell id="_7pGHJa7b0wVQJP2x8iK-2" value="&lt;font color=&quot;#ffffff&quot;&gt;&lt;b&gt;สำคัญไม่รีบ&lt;br&gt;&lt;/b&gt;คือสำคัญแต่ยังพอเก็บไว้ทำทีหลังได้&lt;/font&gt;" style="text;html=1;strokeColor=#b85450;align=center;verticalAlign=middle;whiteSpace=wrap;rounded=0;fillColor=#EA6B66;" parent="U7CppzZx9__meJYJCQPd-1" vertex="1">
          <mxGeometry x="30" y="620" width="220" height="40" as="geometry" />
        </mxCell>
        <mxCell id="_7pGHJa7b0wVQJP2x8iK-4" value="&lt;b&gt;&lt;font color=&quot;#ffffff&quot;&gt;ไม่รีบ ไม่สำคัญ&amp;nbsp; &amp;nbsp;&lt;br&gt;&lt;/font&gt;&lt;/b&gt;&lt;font color=&quot;#ffffff&quot;&gt;เป็นงานที่ควรทำในเวลาว่างจากทุกอย่างแล้ว ซึ่งจะไม่ส่งผลเสียกับงานอื่น ๆ&lt;/font&gt;" style="text;html=1;align=center;verticalAlign=middle;whiteSpace=wrap;rounded=0;fillColor=#FFD966;strokeColor=#FFD966;" parent="U7CppzZx9__meJYJCQPd-1" vertex="1">
          <mxGeometry x="530" y="600" width="290" height="50" as="geometry" />
        </mxCell>
        <mxCell id="_7pGHJa7b0wVQJP2x8iK-5" value="&lt;b&gt;ไม่สำคัญแต่รีบ&amp;nbsp;&lt;br&gt;&lt;/b&gt;แต่รีบเป็นงานที่ให้คนอื่นทำแทนก็ได้&amp;nbsp;" style="text;html=1;strokeColor=#C73500;fillColor=#fa6800;align=center;verticalAlign=middle;whiteSpace=wrap;rounded=0;fontColor=#ffffff;" parent="U7CppzZx9__meJYJCQPd-1" vertex="1">
          <mxGeometry x="530" y="550" width="190" height="40" as="geometry" />
        </mxCell>
        <mxCell id="68WK31Y6PF-lm4PFj-Y8-0" value="&lt;font style=&quot;font-size: 14px&quot;&gt;&lt;u&gt;&lt;b&gt;&lt;font color=&quot;#ff3333&quot;&gt;* อ้างอิง *&lt;br&gt;&lt;/font&gt;&lt;/b&gt;&lt;/u&gt;วิธีจัดการงานและเวลาตามแบบฉบับของ&lt;br&gt;Dwight D. Eisenhower &lt;br&gt;วิธีที่เรียกว่า Eisenhower Box&lt;/font&gt;" style="text;html=1;strokeColor=none;fillColor=none;align=center;verticalAlign=middle;whiteSpace=wrap;rounded=0;" vertex="1" parent="U7CppzZx9__meJYJCQPd-1">
          <mxGeometry x="425" y="880" width="520" height="110" as="geometry" />
        </mxCell>
      </root>
    </mxGraphModel>
  </diagram>
  <diagram id="a5gWgNcX6J9hdcYbWf5L" name="function ID">
    <mxGraphModel dx="806" dy="522" grid="1" gridSize="10" guides="1" tooltips="1" connect="1" arrows="1" fold="1" page="1" pageScale="1" pageWidth="850" pageHeight="1100" math="0" shadow="0">
      <root>
        <mxCell id="ajFuSmVrddKeawb3s0bp-0" />
        <mxCell id="ajFuSmVrddKeawb3s0bp-1" parent="ajFuSmVrddKeawb3s0bp-0" />
        <mxCell id="45YzH0mEPgOOc5epRItd-0" value="ศึกษา dict&lt;br&gt;เพื่อใช้สร้าง ID in 1 day" style="text;html=1;align=center;verticalAlign=middle;resizable=0;points=[];autosize=1;fontSize=40;fontColor=#000000;" parent="ajFuSmVrddKeawb3s0bp-1" vertex="1">
          <mxGeometry x="230" y="40" width="410" height="100" as="geometry" />
        </mxCell>
        <mxCell id="NOZwkCuMdwZxfRpl8qJl-0" value="&lt;div&gt;&lt;font style=&quot;font-size: 24px&quot;&gt;ALL_ID = { &lt;br&gt;&lt;/font&gt;&lt;/div&gt;&lt;div&gt;&lt;font style=&quot;font-size: 24px&quot;&gt;ID_01:{ Date:xxx, Times:xxx, Important:xxx, Activity:xxx} , &lt;br&gt;&lt;/font&gt;&lt;/div&gt;&lt;div&gt;&lt;font style=&quot;font-size: 24px&quot;&gt;ID_XX:{XX} }&lt;/font&gt;&lt;/div&gt;" style="rounded=1;whiteSpace=wrap;html=1;fillColor=#dae8fc;strokeColor=#6c8ebf;" parent="ajFuSmVrddKeawb3s0bp-1" vertex="1">
          <mxGeometry x="205" y="210" width="505" height="430" as="geometry" />
        </mxCell>
      </root>
    </mxGraphModel>
  </diagram>
  <diagram id="OvSH62DoTymZ-rA0nLNE" name="function calendar">
    <mxGraphModel dx="806" dy="522" grid="1" gridSize="10" guides="1" tooltips="1" connect="1" arrows="1" fold="1" page="1" pageScale="1" pageWidth="850" pageHeight="1100" math="0" shadow="0">
      <root>
        <mxCell id="l5yhMMmafrgsObtm3FC0-0" />
        <mxCell id="l5yhMMmafrgsObtm3FC0-1" parent="l5yhMMmafrgsObtm3FC0-0" />
        <mxCell id="klykG2fEiFNNRob-9ywS-7" style="edgeStyle=orthogonalEdgeStyle;rounded=0;orthogonalLoop=1;jettySize=auto;html=1;exitX=0.5;exitY=1;exitDx=0;exitDy=0;entryX=0.5;entryY=0;entryDx=0;entryDy=0;fontSize=14;" parent="l5yhMMmafrgsObtm3FC0-1" source="klykG2fEiFNNRob-9ywS-0" target="klykG2fEiFNNRob-9ywS-2" edge="1">
          <mxGeometry relative="1" as="geometry" />
        </mxCell>
        <mxCell id="klykG2fEiFNNRob-9ywS-0" value="Start" style="ellipse;whiteSpace=wrap;html=1;fontSize=14;gradientColor=#ffa500;fillColor=#ffcd28;strokeColor=#d79b00;" parent="l5yhMMmafrgsObtm3FC0-1" vertex="1">
          <mxGeometry x="340" y="40" width="120" height="80" as="geometry" />
        </mxCell>
        <mxCell id="klykG2fEiFNNRob-9ywS-8" style="edgeStyle=orthogonalEdgeStyle;rounded=0;orthogonalLoop=1;jettySize=auto;html=1;exitX=0.5;exitY=1;exitDx=0;exitDy=0;entryX=0.5;entryY=0;entryDx=0;entryDy=0;fontSize=14;" parent="l5yhMMmafrgsObtm3FC0-1" source="klykG2fEiFNNRob-9ywS-2" target="klykG2fEiFNNRob-9ywS-4" edge="1">
          <mxGeometry relative="1" as="geometry" />
        </mxCell>
        <mxCell id="klykG2fEiFNNRob-9ywS-2" value="import calender" style="rounded=1;whiteSpace=wrap;html=1;fontSize=14;gradientColor=#7ea6e0;fillColor=#dae8fc;strokeColor=#6c8ebf;" parent="l5yhMMmafrgsObtm3FC0-1" vertex="1">
          <mxGeometry x="340" y="160" width="120" height="60" as="geometry" />
        </mxCell>
        <mxCell id="klykG2fEiFNNRob-9ywS-10" style="edgeStyle=orthogonalEdgeStyle;rounded=0;orthogonalLoop=1;jettySize=auto;html=1;exitX=0.5;exitY=1;exitDx=0;exitDy=0;entryX=0.5;entryY=0;entryDx=0;entryDy=0;fontSize=14;" parent="l5yhMMmafrgsObtm3FC0-1" source="klykG2fEiFNNRob-9ywS-4" target="klykG2fEiFNNRob-9ywS-6" edge="1">
          <mxGeometry relative="1" as="geometry" />
        </mxCell>
        <mxCell id="klykG2fEiFNNRob-9ywS-4" value="Calender" style="shape=process;whiteSpace=wrap;html=1;backgroundOutline=1;fontSize=14;gradientColor=#d5739d;fillColor=#e6d0de;strokeColor=#996185;" parent="l5yhMMmafrgsObtm3FC0-1" vertex="1">
          <mxGeometry x="340" y="260" width="120" height="60" as="geometry" />
        </mxCell>
        <mxCell id="klykG2fEiFNNRob-9ywS-6" value="End" style="ellipse;whiteSpace=wrap;html=1;fontSize=14;gradientColor=#97d077;fillColor=#d5e8d4;strokeColor=#82b366;" parent="l5yhMMmafrgsObtm3FC0-1" vertex="1">
          <mxGeometry x="340" y="360" width="120" height="80" as="geometry" />
        </mxCell>
        <UserObject label="&lt;font style=&quot;font-size: 24px&quot;&gt;Calendar&lt;/font&gt;" link="https://docs.python.org/3/library/calendar.html" id="atsnuaqdGKQtXVEAnWsJ-0">
          <mxCell style="text;html=1;align=center;verticalAlign=middle;resizable=0;points=[];autosize=1;" parent="l5yhMMmafrgsObtm3FC0-1" vertex="1">
            <mxGeometry x="530" y="70" width="110" height="20" as="geometry" />
          </mxCell>
        </UserObject>
      </root>
    </mxGraphModel>
  </diagram>
  <diagram id="dnS288IebJ6qI9hPRBI6" name="function time">
    <mxGraphModel dx="806" dy="522" grid="1" gridSize="10" guides="1" tooltips="1" connect="1" arrows="1" fold="1" page="1" pageScale="1" pageWidth="850" pageHeight="1100" math="0" shadow="0">
      <root>
        <mxCell id="9LmgN0R9KPMRFETjD8E9-0" />
        <mxCell id="9LmgN0R9KPMRFETjD8E9-1" parent="9LmgN0R9KPMRFETjD8E9-0" />
        <mxCell id="zFQqYQoitDrnXamn3h3e-2" style="edgeStyle=orthogonalEdgeStyle;rounded=0;orthogonalLoop=1;jettySize=auto;html=1;exitX=0.5;exitY=1;exitDx=0;exitDy=0;entryX=0.5;entryY=0;entryDx=0;entryDy=0;" parent="9LmgN0R9KPMRFETjD8E9-1" source="2nG7fXOuAf2G-nqKw2f0-0" target="2nG7fXOuAf2G-nqKw2f0-1" edge="1">
          <mxGeometry relative="1" as="geometry" />
        </mxCell>
        <mxCell id="2nG7fXOuAf2G-nqKw2f0-0" value="Start" style="ellipse;whiteSpace=wrap;html=1;fillColor=#fa6800;strokeColor=#C73500;fontColor=#ffffff;" parent="9LmgN0R9KPMRFETjD8E9-1" vertex="1">
          <mxGeometry x="365" y="30" width="105" height="60" as="geometry" />
        </mxCell>
        <mxCell id="VEaYRN9PloJp4_zlgGAB-1" value="" style="edgeStyle=orthogonalEdgeStyle;rounded=0;orthogonalLoop=1;jettySize=auto;html=1;" parent="9LmgN0R9KPMRFETjD8E9-1" source="2nG7fXOuAf2G-nqKw2f0-1" target="VEaYRN9PloJp4_zlgGAB-0" edge="1">
          <mxGeometry relative="1" as="geometry" />
        </mxCell>
        <mxCell id="2nG7fXOuAf2G-nqKw2f0-1" value="Import Time" style="rounded=1;whiteSpace=wrap;html=1;fillColor=#a0522d;strokeColor=#6D1F00;fontColor=#ffffff;" parent="9LmgN0R9KPMRFETjD8E9-1" vertex="1">
          <mxGeometry x="357.5" y="120" width="120" height="60" as="geometry" />
        </mxCell>
        <mxCell id="zFQqYQoitDrnXamn3h3e-1" style="edgeStyle=orthogonalEdgeStyle;rounded=0;orthogonalLoop=1;jettySize=auto;html=1;exitX=0.5;exitY=1;exitDx=0;exitDy=0;entryX=0.5;entryY=0;entryDx=0;entryDy=0;" parent="9LmgN0R9KPMRFETjD8E9-1" source="VEaYRN9PloJp4_zlgGAB-0" target="zFQqYQoitDrnXamn3h3e-0" edge="1">
          <mxGeometry relative="1" as="geometry" />
        </mxCell>
        <mxCell id="VEaYRN9PloJp4_zlgGAB-0" value="Show Time" style="rounded=1;whiteSpace=wrap;html=1;fillColor=#a0522d;strokeColor=#6D1F00;fontColor=#ffffff;" parent="9LmgN0R9KPMRFETjD8E9-1" vertex="1">
          <mxGeometry x="357.5" y="250" width="120" height="60" as="geometry" />
        </mxCell>
        <mxCell id="zFQqYQoitDrnXamn3h3e-0" value="End" style="ellipse;whiteSpace=wrap;html=1;fillColor=#fa6800;strokeColor=#C73500;fontColor=#ffffff;" parent="9LmgN0R9KPMRFETjD8E9-1" vertex="1">
          <mxGeometry x="357.5" y="350" width="120" height="80" as="geometry" />
        </mxCell>
        <UserObject label="&lt;font style=&quot;font-size: 24px&quot;&gt;TIME&lt;/font&gt;" link="https://www.tutorialspoint.com/python/python_date_time.htm" id="K4j3RI0CS6ODQIFkXNLn-0">
          <mxCell style="text;html=1;align=center;verticalAlign=middle;resizable=0;points=[];autosize=1;" parent="9LmgN0R9KPMRFETjD8E9-1" vertex="1">
            <mxGeometry x="615" y="70" width="70" height="20" as="geometry" />
          </mxCell>
        </UserObject>
      </root>
    </mxGraphModel>
  </diagram>
  <diagram id="SI3W1f3K3y4VhuoGthXO" name="function slide day">
    <mxGraphModel dx="1422" dy="772" grid="1" gridSize="10" guides="1" tooltips="1" connect="1" arrows="1" fold="1" page="1" pageScale="1" pageWidth="850" pageHeight="1100" math="0" shadow="0">
      <root>
        <mxCell id="XZGBF5oeoLYiBJc0UyCA-0" />
        <mxCell id="XZGBF5oeoLYiBJc0UyCA-1" parent="XZGBF5oeoLYiBJc0UyCA-0" />
        <mxCell id="pAggx6uG9y8frOMZNR9_-2" value="" style="edgeStyle=orthogonalEdgeStyle;rounded=0;orthogonalLoop=1;jettySize=auto;html=1;" parent="XZGBF5oeoLYiBJc0UyCA-1" source="pAggx6uG9y8frOMZNR9_-0" target="pAggx6uG9y8frOMZNR9_-1" edge="1">
          <mxGeometry relative="1" as="geometry" />
        </mxCell>
        <mxCell id="pAggx6uG9y8frOMZNR9_-0" value="start" style="ellipse;whiteSpace=wrap;html=1;fillColor=#dae8fc;strokeColor=#6c8ebf;gradientColor=#ffffff;" parent="XZGBF5oeoLYiBJc0UyCA-1" vertex="1">
          <mxGeometry x="368" y="70" width="112" height="60" as="geometry" />
        </mxCell>
        <mxCell id="pAggx6uG9y8frOMZNR9_-4" value="" style="edgeStyle=orthogonalEdgeStyle;rounded=0;orthogonalLoop=1;jettySize=auto;html=1;" parent="XZGBF5oeoLYiBJc0UyCA-1" source="pAggx6uG9y8frOMZNR9_-1" target="pAggx6uG9y8frOMZNR9_-3" edge="1">
          <mxGeometry relative="1" as="geometry" />
        </mxCell>
        <mxCell id="pAggx6uG9y8frOMZNR9_-1" value="create ID for keep days" style="rounded=1;whiteSpace=wrap;html=1;fillColor=#f8cecc;strokeColor=#b85450;gradientColor=#ffffff;" parent="XZGBF5oeoLYiBJc0UyCA-1" vertex="1">
          <mxGeometry x="364" y="166" width="120" height="60" as="geometry" />
        </mxCell>
        <mxCell id="1rKeE8jDUJPy6PBEQCen-1" value="" style="edgeStyle=orthogonalEdgeStyle;rounded=0;orthogonalLoop=1;jettySize=auto;html=1;" parent="XZGBF5oeoLYiBJc0UyCA-1" source="pAggx6uG9y8frOMZNR9_-3" edge="1">
          <mxGeometry relative="1" as="geometry">
            <mxPoint x="424" y="350" as="targetPoint" />
          </mxGeometry>
        </mxCell>
        <mxCell id="pAggx6uG9y8frOMZNR9_-3" value="import calendar" style="whiteSpace=wrap;html=1;rounded=1;fillColor=#ffe6cc;strokeColor=#d79b00;gradientColor=#ffffff;" parent="XZGBF5oeoLYiBJc0UyCA-1" vertex="1">
          <mxGeometry x="364" y="260" width="120" height="60" as="geometry" />
        </mxCell>
        <mxCell id="iVa0To0hXv622Ewh31X9-1" value="" style="edgeStyle=orthogonalEdgeStyle;rounded=0;orthogonalLoop=1;jettySize=auto;html=1;" parent="XZGBF5oeoLYiBJc0UyCA-1" source="1GQUGtG5zCH4A_cvgXsE-0" target="iVa0To0hXv622Ewh31X9-0" edge="1">
          <mxGeometry relative="1" as="geometry" />
        </mxCell>
        <UserObject label="calendar" link="data:page/id,OvSH62DoTymZ-rA0nLNE" id="1GQUGtG5zCH4A_cvgXsE-0">
          <mxCell style="shape=process;whiteSpace=wrap;html=1;backgroundOutline=1;fillColor=#e1d5e7;strokeColor=#9673a6;gradientColor=#ffffff;" parent="XZGBF5oeoLYiBJc0UyCA-1" vertex="1">
            <mxGeometry x="364" y="350" width="120" height="60" as="geometry" />
          </mxCell>
        </UserObject>
        <mxCell id="WPZZLm6oDA90oj6thQ_9-1" value="" style="edgeStyle=orthogonalEdgeStyle;rounded=0;orthogonalLoop=1;jettySize=auto;html=1;" parent="XZGBF5oeoLYiBJc0UyCA-1" source="iVa0To0hXv622Ewh31X9-0" target="WPZZLm6oDA90oj6thQ_9-0" edge="1">
          <mxGeometry relative="1" as="geometry" />
        </mxCell>
        <mxCell id="iVa0To0hXv622Ewh31X9-0" value="user click button slide day" style="rounded=1;whiteSpace=wrap;html=1;fillColor=#f8cecc;strokeColor=#b85450;gradientColor=#ffffff;" parent="XZGBF5oeoLYiBJc0UyCA-1" vertex="1">
          <mxGeometry x="364" y="440" width="120" height="60" as="geometry" />
        </mxCell>
        <mxCell id="Wm4qAkML32iS8SBIvG23-1" value="" style="edgeStyle=orthogonalEdgeStyle;rounded=0;orthogonalLoop=1;jettySize=auto;html=1;" parent="XZGBF5oeoLYiBJc0UyCA-1" source="WPZZLm6oDA90oj6thQ_9-0" target="Wm4qAkML32iS8SBIvG23-0" edge="1">
          <mxGeometry relative="1" as="geometry" />
        </mxCell>
        <mxCell id="WPZZLm6oDA90oj6thQ_9-0" value="id(calender) == ID day" style="whiteSpace=wrap;html=1;rounded=1;fillColor=#ffe6cc;strokeColor=#d79b00;gradientColor=#ffffff;" parent="XZGBF5oeoLYiBJc0UyCA-1" vertex="1">
          <mxGeometry x="364" y="530" width="120" height="60" as="geometry" />
        </mxCell>
        <mxCell id="Wm4qAkML32iS8SBIvG23-3" value="" style="edgeStyle=orthogonalEdgeStyle;rounded=0;orthogonalLoop=1;jettySize=auto;html=1;" parent="XZGBF5oeoLYiBJc0UyCA-1" source="Wm4qAkML32iS8SBIvG23-0" target="Wm4qAkML32iS8SBIvG23-2" edge="1">
          <mxGeometry relative="1" as="geometry" />
        </mxCell>
        <UserObject label="show data on Main" link="data:page/id,lKxtB6D6K-3o9t04PIzB" id="Wm4qAkML32iS8SBIvG23-0">
          <mxCell style="whiteSpace=wrap;html=1;rounded=1;fillColor=#f8cecc;strokeColor=#b85450;gradientColor=#ffffff;" parent="XZGBF5oeoLYiBJc0UyCA-1" vertex="1">
            <mxGeometry x="364" y="630" width="120" height="60" as="geometry" />
          </mxCell>
        </UserObject>
        <mxCell id="Wm4qAkML32iS8SBIvG23-2" value="END" style="ellipse;whiteSpace=wrap;html=1;rounded=1;fillColor=#dae8fc;strokeColor=#6c8ebf;gradientColor=#ffffff;" parent="XZGBF5oeoLYiBJc0UyCA-1" vertex="1">
          <mxGeometry x="364" y="730" width="120" height="60" as="geometry" />
        </mxCell>
      </root>
    </mxGraphModel>
  </diagram>
</mxfile>
